<?xml version="1.0" encoding="UTF-8" standalone="no"?>
<svg xmlns="http://www.w3.org/2000/svg" viewBox="0 0 174.55 174.55">
  <defs>
    <style>.cls-1{fill:#f97e53;}.cls-2{fill:#fdc611;}.cls-3{fill:#62ddd7;}</style>
  </defs>
  <g transform="matrix(2.5142118,0,0,2.5142118,-0.60170566,-1.4374343)">
    <path class="cls-1" d="M 8.67,13.28 C 4.22,17.51 2.22,23.55 3.15,29.6 c 0.89,5.73 3.94,11.06 7.65,15.43 3.95,4.65 9,8.11 14.58,10.52 5.58,2.41 11.29,3.87 17.21,3.83 5.55,-0.04 11.32,-1.76 16.28,-4.17 C 63.83,52.8 68,48.93 69.1,43.4 71.66,30.59 59.99,20.5 49.87,15.23 37.91,9.01 20.12,2.85 8.66,13.28 c -1.46,1.33 0.71,3.5 2.17,2.17 9.11,-8.29 23.3,-4.03 33.19,0.37 5.38,2.39 10.66,5.32 14.95,9.4 3.82,3.64 7.04,8.55 7.37,13.95 0.3,5.04 -2.17,9.24 -6.36,11.91 -4.19,2.67 -9.22,4.31 -14,5 C 40.81,56.83 35.42,55.86 30.5,54.24 25.58,52.62 20.44,50.02 16.43,46.43 12.06,42.51 8.44,37.42 6.77,31.75 5.1,26.08 6.3,19.75 10.83,15.44 12.26,14.08 10.09,11.91 8.66,13.27 Z" />
    <path class="cls-2" d="m 56.78,27.96 c 1.59,6.54 1.78,13.44 0.69,20.08 -0.94,5.72 -2.84,11.57 -7.96,14.86 -8.61,5.54 -19.97,2.5 -27.37,-3.68 -4.05,-3.39 -7.28,-7.79 -9.02,-12.8 -1.83,-5.26 -1.81,-10.95 -0.66,-16.36 1.15,-5.41 3.35,-10.59 6.38,-15.21 2.85,-4.35 6.78,-8.62 11.89,-10.22 6.22,-1.94 12.22,1.16 16.47,5.63 4.65,4.9 7.92,11.17 9.57,17.7 0.49,1.91 3.45,1.1 2.96,-0.82 C 58.06,20.59 54.86,14.45 50.47,9.31 46.5,4.67 40.88,0.89 34.55,0.95 22.19,1.07 14.09,14.45 10.71,24.82 8.8,30.69 8.02,37.03 9.1,43.15 c 1.08,6.12 4.1,11.43 8.23,15.76 7.48,7.85 19.66,12.61 30.19,8.43 3.06,-1.21 5.83,-3.1 7.9,-5.69 2.28,-2.84 3.61,-6.29 4.42,-9.82 1.87,-8.06 1.85,-16.65 -0.11,-24.68 -0.47,-1.92 -3.42,-1.11 -2.96,0.82 z" />
    <path class="cls-3" d="M 18.61,19.56 C 24.05,15.53 30.2,12.47 36.67,10.5 42.17,8.83 48.5,7.36 54.12,9.3 c 10.33,3.55 11.42,16.31 9.16,25.39 -1.31,5.29 -3.77,10.4 -7.43,14.48 -3.86,4.3 -8.97,7.11 -14.47,8.73 -5.5,1.62 -11.47,2.17 -17.26,1.72 C 18.82,59.21 13.21,57.99 8.85,54.81 -4.47,45.11 9.33,26.56 18.6,19.56 20.16,18.38 18.63,15.72 17.05,16.91 11.26,21.28 6.34,26.94 3.14,33.48 c -3,6.14 -4.24,13.87 -0.05,19.8 3.47,4.91 9.32,7.43 15.05,8.59 6.12,1.24 12.46,1.26 18.6,0.24 6.14,-1.02 12.48,-3.35 17.54,-7.3 5.06,-3.95 8.34,-9.08 10.53,-14.8 C 68.69,29.92 69.08,15.71 59.43,8.65 54.31,4.91 47.93,4.94 41.96,6.04 c -7.2,1.33 -14.22,4.1 -20.49,7.89 -1.53,0.92 -3,1.92 -4.44,2.98 -1.57,1.16 -0.04,3.83 1.55,2.65 z" />
    <path class="cls-2" d="m 56.78,27.96 c 1.32,5.42 1.64,11.02 1.14,16.57 -0.46,5.06 -1.48,10.42 -4.45,14.66 -1.13,1.62 1.52,3.16 2.65,1.55 3.19,-4.56 4.28,-10.3 4.82,-15.74 0.6,-5.96 0.21,-12.02 -1.2,-17.85 -0.47,-1.92 -3.42,-1.11 -2.96,0.82 v 0 z" />
    <path class="cls-2" d="M 12.89,45.7 C 10.67,38.55 11.71,30.86 14.26,23.95 16.66,17.45 20.68,10.58 26.58,6.68 29.85,4.52 33.62,3.51 37.5,4.33 39.43,4.73 40.25,1.78 38.32,1.37 30.1,-0.35 22.98,4.35 18.13,10.64 13.28,16.93 9.96,24.83 8.93,32.81 8.34,37.4 8.57,42.1 9.94,46.53 c 0.58,1.88 3.54,1.08 2.96,-0.82 v 0 z" />
    <path class="cls-1" d="m 62.18,24.07 c -4.97,-5.11 -11.3,-8.63 -17.79,-11.42 -0.76,-0.33 -1.64,-0.23 -2.1,0.55 -0.38,0.65 -0.21,1.77 0.55,2.1 6.26,2.69 12.38,6.02 17.17,10.94 1.38,1.42 3.55,-0.75 2.17,-2.17 z" />
  </g>
</svg>
