<?xml version="1.0" encoding="UTF-8"?><svg id="Layer_1" xmlns="http://www.w3.org/2000/svg" viewBox="0 0 319 34"><defs><style>.cls-1{fill:#fff;}</style></defs><g><path class="cls-1" d="M0,.55H7.13V12.18l-1.34,4.01h1.78c1.16-2.99,3.3-5.84,8.87-5.84,6.51,0,9.76,5.31,9.76,11.68s-3.25,11.73-9.76,11.73c-5.57,0-7.71-2.85-8.87-5.84h-1.78l1.34,4.01v1.38H0V.55ZM13.11,27.52c3.83,0,5.97-1.69,5.97-5.48s-2.14-5.44-5.97-5.44-5.97,1.65-5.97,5.44,2.14,5.48,5.97,5.48Z"/><path class="cls-1" d="M28,14.19c0-2.45,1.38-3.79,3.83-3.75l14.76,.36v6.24l-11.46-.27v16.54h-7.13V14.19Z"/><path class="cls-1" d="M55.6,20.08l7.09-.98c0-1.83-1.43-2.94-4.5-2.94-2.85,0-4.46,1.2-4.46,3.25h-6.69c0-5.71,4.86-9.05,11.15-9.05s11.64,2.99,11.64,10.39v6.33h3.25v6.24h-4.95c-2.14,0-3.34-1.2-3.34-3.34v-.45l1.11-2.68h-1.78c-.85,3.75-3.03,6.91-9.32,6.91-7,0-8.2-4.28-8.2-6.6,0-3.88,2.32-6.15,9.01-7.09Zm.58,7.45c3.92,0,6.51-1.65,6.51-4.41l-5.75,.8c-2.14,.31-3.21,.62-3.21,1.92s1.25,1.69,2.45,1.69Z"/><path class="cls-1" d="M85.39,10.36c6.15,0,11.77,3.34,12.08,9.76h-7.13c-.27-2.01-2.1-3.52-4.95-3.52-3.39,0-5.17,2.01-5.17,5.44s1.78,5.48,5.17,5.48c2.85,0,4.68-1.52,4.95-3.52h7.13c-.31,6.42-5.93,9.76-12.08,9.76-7.18,0-12.31-4.19-12.31-11.73s5.13-11.68,12.31-11.68Z"/><path class="cls-1" d="M110.22,10.36c7,0,11.9,4.15,11.9,10.97v2.23h-17.08c0,2.59,1.87,4.41,5.93,4.41,2.5,0,4.37-.89,4.82-2.59h7.13c-.45,3.25-4.15,8.38-11.95,8.38-8.65,0-12.62-5.62-12.62-11.99,0-7.13,4.86-11.41,11.86-11.41Zm5.22,9.19c0-1.69-1.25-3.39-5.22-3.39s-5.17,1.69-5.17,3.39h10.39Z"/><path class="cls-1" d="M123.37,27.08h6.24V6.52l-5.35,.27V.55l8.6-.31c2.5-.09,3.88,1.25,3.88,3.75V27.08h6.24v6.24h-19.62v-6.24Z"/><path class="cls-1" d="M154.85,10.36c7,0,11.9,4.15,11.9,10.97v2.23h-17.08c0,2.59,1.87,4.41,5.93,4.41,2.5,0,4.37-.89,4.82-2.59h7.13c-.45,3.25-4.15,8.38-11.95,8.38-8.65,0-12.62-5.62-12.62-11.99,0-7.13,4.86-11.41,11.86-11.41Zm5.22,9.19c0-1.69-1.25-3.39-5.22-3.39s-5.17,1.69-5.17,3.39h10.39Z"/><path class="cls-1" d="M187.89,27.08v6.24l-11.64,.45c-2.45,.09-3.79-1.34-3.79-3.79v-12.93h-5.35v-6.24h5.35V6.57l7.13-2.23v6.46h7.4v6.24h-7.4v10.48l8.29-.45Z"/></g><g><path class="cls-1" d="M228.8,18.92v14.4h-2.94v-13.47c0-4.28-1.03-6.55-4.82-6.55-4.5,0-7.49,4.01-7.49,9.9v10.12h-2.94v-13.47c0-4.28-1.03-6.55-4.82-6.55-4.5,0-7.49,4.01-7.49,9.9v10.12h-2.94V11.25h2.94v4.06l-.45,2.23h.89c.89-4.01,3.25-6.73,8.07-6.73,3.97,0,6.24,2.72,6.64,6.73h.53c.89-4.01,3.26-6.73,8.07-6.73,4.41,0,6.73,3.39,6.73,8.11Z"/><path class="cls-1" d="M239.81,20.83l9.19-.85c-.27-4.5-2.63-6.69-6.6-6.69-3.3,0-6.55,1.52-6.55,6.11h-2.94c0-4.37,3.21-8.61,9.5-8.61s9.54,4.32,9.54,9.94v10.08h3.26v2.5h-3.75c-1.56,0-2.45-.89-2.45-2.45v-1.34l.45-2.23h-.89c-.85,3.3-3.26,6.47-8.43,6.47-6.33,0-7.22-4.28-7.22-6.6,0-3.43,2.05-5.89,6.91-6.33Zm.58,10.43c5.26,0,8.61-3.83,8.61-8.78l-8.74,.85c-2.94,.27-4.41,1.2-4.41,3.57,0,2.81,1.69,4.37,4.55,4.37Z"/><path class="cls-1" d="M265.94,22.71l-4.59,2.59v8.03h-2.94V.55h2.94V22.17l11.46-6.47-.49-4.46h2.94l.45,3.88c.13,1.34-.49,2.32-1.61,2.94l-5.8,3.3,8.74,11.95h-3.34l-7.76-10.61Z"/><path class="cls-1" d="M289.39,10.8c6.11,0,10.03,3.92,10.03,10.75v1.25h-17.57c.27,4.5,2.27,8.47,8.03,8.47,3.92,0,6.47-1.96,7.36-5.66h2.94c-.89,3.48-3.39,8.16-10.3,8.16-7.76,0-10.97-5.4-10.97-11.77,0-7.13,4.37-11.19,10.48-11.19Zm7.09,9.5c0-3.92-2.54-7-7.09-7s-7.54,3.08-7.54,7h14.62Z"/><path class="cls-1" d="M304.29,13.7c0-2.01,.89-2.99,2.9-2.9l11.82,.45v2.5l-11.77-.45v20.02h-2.94V13.7Z"/></g></svg>